<svg xmlns="http://www.w3.org/2000/svg" width="31.9" height="26.773" viewBox="0 0 31.9 26.773"><path d="M31.046,71.988H.854A.855.855,0,0,1,0,71.133V68.854A.855.855,0,0,1,.854,68H31.046a.855.855,0,0,1,.854.854v2.279A.855.855,0,0,1,31.046,71.988Zm0,11.393H.854A.855.855,0,0,1,0,82.526V80.247a.855.855,0,0,1,.854-.854H31.046a.855.855,0,0,1,.854.854v2.279A.855.855,0,0,1,31.046,83.38Zm0,11.393H.854A.855.855,0,0,1,0,93.919V91.64a.855.855,0,0,1,.854-.854H31.046a.854.854,0,0,1,.854.854v2.279A.855.855,0,0,1,31.046,94.773Z" transform="translate(0 -68)"/></svg>